<mxfile host="app.diagrams.net" modified="2022-09-17T14:29:29.189Z" agent="5.0 (Windows NT 10.0; Win64; x64) AppleWebKit/537.36 (KHTML, like Gecko) Chrome/105.0.0.0 Safari/537.36 Edg/105.0.1343.33" etag="xnuxo2TnBWvmjxQ_1GAG" version="20.3.2" type="github">
  <diagram id="othqXeQ_uBLobyq-8VhW" name="第 1 页">
    <mxGraphModel dx="1422" dy="794" grid="0" gridSize="10" guides="1" tooltips="1" connect="1" arrows="1" fold="1" page="1" pageScale="1" pageWidth="827" pageHeight="1169" math="0" shadow="0">
      <root>
        <mxCell id="0" />
        <mxCell id="1" parent="0" />
        <mxCell id="DGvuqAQG5Nx5wT4afMYh-6" style="edgeStyle=orthogonalEdgeStyle;rounded=0;orthogonalLoop=1;jettySize=auto;html=1;exitX=0.5;exitY=1;exitDx=0;exitDy=0;exitPerimeter=0;" edge="1" parent="1" source="DGvuqAQG5Nx5wT4afMYh-1" target="DGvuqAQG5Nx5wT4afMYh-4">
          <mxGeometry relative="1" as="geometry" />
        </mxCell>
        <mxCell id="DGvuqAQG5Nx5wT4afMYh-1" value="开始" style="strokeWidth=2;html=1;shape=mxgraph.flowchart.terminator;whiteSpace=wrap;" vertex="1" parent="1">
          <mxGeometry x="383" y="12" width="61" height="35" as="geometry" />
        </mxCell>
        <mxCell id="DGvuqAQG5Nx5wT4afMYh-8" value="否" style="edgeStyle=orthogonalEdgeStyle;rounded=0;orthogonalLoop=1;jettySize=auto;html=1;" edge="1" parent="1" source="DGvuqAQG5Nx5wT4afMYh-4">
          <mxGeometry relative="1" as="geometry">
            <mxPoint x="413.5" y="177" as="targetPoint" />
          </mxGeometry>
        </mxCell>
        <mxCell id="DGvuqAQG5Nx5wT4afMYh-4" value="检查是否有session" style="strokeWidth=2;html=1;shape=mxgraph.flowchart.decision;whiteSpace=wrap;" vertex="1" parent="1">
          <mxGeometry x="345" y="78" width="137" height="47" as="geometry" />
        </mxCell>
        <mxCell id="DGvuqAQG5Nx5wT4afMYh-10" value="" style="edgeStyle=orthogonalEdgeStyle;rounded=0;orthogonalLoop=1;jettySize=auto;html=1;" edge="1" parent="1" target="DGvuqAQG5Nx5wT4afMYh-9">
          <mxGeometry relative="1" as="geometry">
            <mxPoint x="413.51428571428573" y="224" as="sourcePoint" />
          </mxGeometry>
        </mxCell>
        <mxCell id="DGvuqAQG5Nx5wT4afMYh-17" value="否" style="edgeStyle=orthogonalEdgeStyle;rounded=0;orthogonalLoop=1;jettySize=auto;html=1;exitX=1;exitY=0.5;exitDx=0;exitDy=0;exitPerimeter=0;entryX=0.996;entryY=0.394;entryDx=0;entryDy=0;entryPerimeter=0;" edge="1" parent="1" source="DGvuqAQG5Nx5wT4afMYh-9" target="DGvuqAQG5Nx5wT4afMYh-11">
          <mxGeometry relative="1" as="geometry" />
        </mxCell>
        <mxCell id="DGvuqAQG5Nx5wT4afMYh-19" value="是" style="edgeStyle=orthogonalEdgeStyle;rounded=0;orthogonalLoop=1;jettySize=auto;html=1;" edge="1" parent="1" source="DGvuqAQG5Nx5wT4afMYh-9">
          <mxGeometry relative="1" as="geometry">
            <mxPoint x="414.48571428571427" y="359" as="targetPoint" />
          </mxGeometry>
        </mxCell>
        <mxCell id="DGvuqAQG5Nx5wT4afMYh-9" value="检查账号密码是否正确" style="strokeWidth=2;html=1;shape=mxgraph.flowchart.decision;whiteSpace=wrap;" vertex="1" parent="1">
          <mxGeometry x="334" y="261" width="160" height="47" as="geometry" />
        </mxCell>
        <mxCell id="DGvuqAQG5Nx5wT4afMYh-13" value="" style="edgeStyle=orthogonalEdgeStyle;rounded=0;orthogonalLoop=1;jettySize=auto;html=1;" edge="1" parent="1" source="DGvuqAQG5Nx5wT4afMYh-11" target="DGvuqAQG5Nx5wT4afMYh-12">
          <mxGeometry relative="1" as="geometry" />
        </mxCell>
        <mxCell id="DGvuqAQG5Nx5wT4afMYh-11" value="登入" style="rounded=1;whiteSpace=wrap;html=1;absoluteArcSize=1;arcSize=14;strokeWidth=2;" vertex="1" parent="1">
          <mxGeometry x="364" y="179" width="100" height="41" as="geometry" />
        </mxCell>
        <mxCell id="DGvuqAQG5Nx5wT4afMYh-55" style="edgeStyle=orthogonalEdgeStyle;rounded=0;orthogonalLoop=1;jettySize=auto;html=1;exitX=0;exitY=0.5;exitDx=0;exitDy=0;entryX=0;entryY=0.5;entryDx=0;entryDy=0;entryPerimeter=0;" edge="1" parent="1" source="DGvuqAQG5Nx5wT4afMYh-12" target="DGvuqAQG5Nx5wT4afMYh-39">
          <mxGeometry relative="1" as="geometry" />
        </mxCell>
        <mxCell id="DGvuqAQG5Nx5wT4afMYh-12" value="注册" style="rounded=1;whiteSpace=wrap;html=1;absoluteArcSize=1;arcSize=14;strokeWidth=2;" vertex="1" parent="1">
          <mxGeometry x="214" y="179" width="100" height="41" as="geometry" />
        </mxCell>
        <mxCell id="DGvuqAQG5Nx5wT4afMYh-22" value="" style="edgeStyle=orthogonalEdgeStyle;rounded=0;orthogonalLoop=1;jettySize=auto;html=1;" edge="1" parent="1" source="DGvuqAQG5Nx5wT4afMYh-20" target="DGvuqAQG5Nx5wT4afMYh-21">
          <mxGeometry relative="1" as="geometry" />
        </mxCell>
        <mxCell id="DGvuqAQG5Nx5wT4afMYh-24" value="" style="edgeStyle=orthogonalEdgeStyle;rounded=0;orthogonalLoop=1;jettySize=auto;html=1;" edge="1" parent="1" source="DGvuqAQG5Nx5wT4afMYh-20" target="DGvuqAQG5Nx5wT4afMYh-23">
          <mxGeometry relative="1" as="geometry" />
        </mxCell>
        <mxCell id="DGvuqAQG5Nx5wT4afMYh-26" value="" style="edgeStyle=orthogonalEdgeStyle;rounded=0;orthogonalLoop=1;jettySize=auto;html=1;" edge="1" parent="1" source="DGvuqAQG5Nx5wT4afMYh-20" target="DGvuqAQG5Nx5wT4afMYh-25">
          <mxGeometry relative="1" as="geometry" />
        </mxCell>
        <mxCell id="DGvuqAQG5Nx5wT4afMYh-28" value="" style="edgeStyle=orthogonalEdgeStyle;rounded=0;orthogonalLoop=1;jettySize=auto;html=1;" edge="1" parent="1" source="DGvuqAQG5Nx5wT4afMYh-20" target="DGvuqAQG5Nx5wT4afMYh-27">
          <mxGeometry relative="1" as="geometry" />
        </mxCell>
        <mxCell id="DGvuqAQG5Nx5wT4afMYh-32" value="" style="edgeStyle=orthogonalEdgeStyle;rounded=0;orthogonalLoop=1;jettySize=auto;html=1;" edge="1" parent="1" source="DGvuqAQG5Nx5wT4afMYh-20" target="DGvuqAQG5Nx5wT4afMYh-31">
          <mxGeometry relative="1" as="geometry" />
        </mxCell>
        <mxCell id="DGvuqAQG5Nx5wT4afMYh-34" value="" style="edgeStyle=orthogonalEdgeStyle;rounded=0;orthogonalLoop=1;jettySize=auto;html=1;" edge="1" parent="1" source="DGvuqAQG5Nx5wT4afMYh-20" target="DGvuqAQG5Nx5wT4afMYh-33">
          <mxGeometry relative="1" as="geometry" />
        </mxCell>
        <mxCell id="DGvuqAQG5Nx5wT4afMYh-20" value="进入论坛" style="rounded=1;whiteSpace=wrap;html=1;absoluteArcSize=1;arcSize=14;strokeWidth=2;" vertex="1" parent="1">
          <mxGeometry x="375" y="363" width="78" height="33" as="geometry" />
        </mxCell>
        <mxCell id="DGvuqAQG5Nx5wT4afMYh-48" value="" style="edgeStyle=orthogonalEdgeStyle;rounded=0;orthogonalLoop=1;jettySize=auto;html=1;" edge="1" parent="1" source="DGvuqAQG5Nx5wT4afMYh-21" target="DGvuqAQG5Nx5wT4afMYh-47">
          <mxGeometry relative="1" as="geometry" />
        </mxCell>
        <mxCell id="DGvuqAQG5Nx5wT4afMYh-21" value="修改个人信息" style="rounded=1;whiteSpace=wrap;html=1;absoluteArcSize=1;arcSize=14;strokeWidth=2;" vertex="1" parent="1">
          <mxGeometry x="201" y="429" width="78" height="33" as="geometry" />
        </mxCell>
        <mxCell id="DGvuqAQG5Nx5wT4afMYh-44" value="" style="edgeStyle=orthogonalEdgeStyle;rounded=0;orthogonalLoop=1;jettySize=auto;html=1;" edge="1" parent="1" source="DGvuqAQG5Nx5wT4afMYh-23" target="DGvuqAQG5Nx5wT4afMYh-43">
          <mxGeometry relative="1" as="geometry" />
        </mxCell>
        <mxCell id="DGvuqAQG5Nx5wT4afMYh-23" value="修改密码" style="rounded=1;whiteSpace=wrap;html=1;absoluteArcSize=1;arcSize=14;strokeWidth=2;" vertex="1" parent="1">
          <mxGeometry x="468" y="429" width="78" height="33" as="geometry" />
        </mxCell>
        <mxCell id="DGvuqAQG5Nx5wT4afMYh-51" value="" style="edgeStyle=orthogonalEdgeStyle;rounded=0;orthogonalLoop=1;jettySize=auto;html=1;" edge="1" parent="1" source="DGvuqAQG5Nx5wT4afMYh-25" target="DGvuqAQG5Nx5wT4afMYh-50">
          <mxGeometry relative="1" as="geometry" />
        </mxCell>
        <mxCell id="DGvuqAQG5Nx5wT4afMYh-25" value="修改头像" style="rounded=1;whiteSpace=wrap;html=1;absoluteArcSize=1;arcSize=14;strokeWidth=2;" vertex="1" parent="1">
          <mxGeometry x="106" y="429" width="78" height="33" as="geometry" />
        </mxCell>
        <mxCell id="DGvuqAQG5Nx5wT4afMYh-36" value="" style="edgeStyle=orthogonalEdgeStyle;rounded=0;orthogonalLoop=1;jettySize=auto;html=1;" edge="1" parent="1" source="DGvuqAQG5Nx5wT4afMYh-27" target="DGvuqAQG5Nx5wT4afMYh-35">
          <mxGeometry relative="1" as="geometry" />
        </mxCell>
        <mxCell id="DGvuqAQG5Nx5wT4afMYh-27" value="发帖" style="rounded=1;whiteSpace=wrap;html=1;absoluteArcSize=1;arcSize=14;strokeWidth=2;" vertex="1" parent="1">
          <mxGeometry x="567" y="429" width="78" height="33" as="geometry" />
        </mxCell>
        <mxCell id="DGvuqAQG5Nx5wT4afMYh-41" style="edgeStyle=orthogonalEdgeStyle;rounded=0;orthogonalLoop=1;jettySize=auto;html=1;exitX=0.5;exitY=1;exitDx=0;exitDy=0;entryX=0.631;entryY=0.069;entryDx=0;entryDy=0;entryPerimeter=0;" edge="1" parent="1" source="DGvuqAQG5Nx5wT4afMYh-31" target="DGvuqAQG5Nx5wT4afMYh-39">
          <mxGeometry relative="1" as="geometry" />
        </mxCell>
        <mxCell id="DGvuqAQG5Nx5wT4afMYh-31" value="查看通知" style="rounded=1;whiteSpace=wrap;html=1;absoluteArcSize=1;arcSize=14;strokeWidth=2;" vertex="1" parent="1">
          <mxGeometry x="375" y="429" width="78" height="33" as="geometry" />
        </mxCell>
        <mxCell id="DGvuqAQG5Nx5wT4afMYh-42" style="edgeStyle=orthogonalEdgeStyle;rounded=0;orthogonalLoop=1;jettySize=auto;html=1;exitX=0.5;exitY=1;exitDx=0;exitDy=0;entryX=0.219;entryY=0.086;entryDx=0;entryDy=0;entryPerimeter=0;" edge="1" parent="1" source="DGvuqAQG5Nx5wT4afMYh-33" target="DGvuqAQG5Nx5wT4afMYh-39">
          <mxGeometry relative="1" as="geometry" />
        </mxCell>
        <mxCell id="DGvuqAQG5Nx5wT4afMYh-33" value="个人中心" style="rounded=1;whiteSpace=wrap;html=1;absoluteArcSize=1;arcSize=14;strokeWidth=2;" vertex="1" parent="1">
          <mxGeometry x="288" y="429" width="78" height="33" as="geometry" />
        </mxCell>
        <mxCell id="DGvuqAQG5Nx5wT4afMYh-38" value="否" style="edgeStyle=orthogonalEdgeStyle;rounded=0;orthogonalLoop=1;jettySize=auto;html=1;exitX=1;exitY=0.5;exitDx=0;exitDy=0;entryX=1;entryY=0.5;entryDx=0;entryDy=0;" edge="1" parent="1" source="DGvuqAQG5Nx5wT4afMYh-35" target="DGvuqAQG5Nx5wT4afMYh-27">
          <mxGeometry relative="1" as="geometry" />
        </mxCell>
        <mxCell id="DGvuqAQG5Nx5wT4afMYh-40" value="是" style="edgeStyle=orthogonalEdgeStyle;rounded=0;orthogonalLoop=1;jettySize=auto;html=1;exitX=0.5;exitY=1;exitDx=0;exitDy=0;entryX=1;entryY=0.5;entryDx=0;entryDy=0;entryPerimeter=0;" edge="1" parent="1" source="DGvuqAQG5Nx5wT4afMYh-35" target="DGvuqAQG5Nx5wT4afMYh-39">
          <mxGeometry relative="1" as="geometry" />
        </mxCell>
        <mxCell id="DGvuqAQG5Nx5wT4afMYh-35" value="是否发布成功" style="rhombus;whiteSpace=wrap;html=1;rounded=1;arcSize=14;strokeWidth=2;" vertex="1" parent="1">
          <mxGeometry x="552" y="520" width="108" height="66" as="geometry" />
        </mxCell>
        <mxCell id="DGvuqAQG5Nx5wT4afMYh-39" value="结束" style="strokeWidth=2;html=1;shape=mxgraph.flowchart.terminator;whiteSpace=wrap;" vertex="1" parent="1">
          <mxGeometry x="364" y="659" width="79" height="35" as="geometry" />
        </mxCell>
        <mxCell id="DGvuqAQG5Nx5wT4afMYh-45" value="否" style="edgeStyle=orthogonalEdgeStyle;rounded=0;orthogonalLoop=1;jettySize=auto;html=1;exitX=1;exitY=0.5;exitDx=0;exitDy=0;" edge="1" parent="1" source="DGvuqAQG5Nx5wT4afMYh-43" target="DGvuqAQG5Nx5wT4afMYh-23">
          <mxGeometry relative="1" as="geometry" />
        </mxCell>
        <mxCell id="DGvuqAQG5Nx5wT4afMYh-46" value="是" style="edgeStyle=orthogonalEdgeStyle;rounded=0;orthogonalLoop=1;jettySize=auto;html=1;exitX=0.5;exitY=1;exitDx=0;exitDy=0;entryX=0.986;entryY=0.249;entryDx=0;entryDy=0;entryPerimeter=0;" edge="1" parent="1" source="DGvuqAQG5Nx5wT4afMYh-43" target="DGvuqAQG5Nx5wT4afMYh-39">
          <mxGeometry relative="1" as="geometry" />
        </mxCell>
        <mxCell id="DGvuqAQG5Nx5wT4afMYh-43" value="是否修改成功" style="rhombus;whiteSpace=wrap;html=1;rounded=1;arcSize=14;strokeWidth=2;" vertex="1" parent="1">
          <mxGeometry x="437" y="520" width="80" height="60" as="geometry" />
        </mxCell>
        <mxCell id="DGvuqAQG5Nx5wT4afMYh-49" value="是" style="edgeStyle=orthogonalEdgeStyle;rounded=0;orthogonalLoop=1;jettySize=auto;html=1;exitX=0.5;exitY=1;exitDx=0;exitDy=0;entryX=0;entryY=0.5;entryDx=0;entryDy=0;entryPerimeter=0;" edge="1" parent="1" source="DGvuqAQG5Nx5wT4afMYh-47" target="DGvuqAQG5Nx5wT4afMYh-39">
          <mxGeometry relative="1" as="geometry" />
        </mxCell>
        <mxCell id="DGvuqAQG5Nx5wT4afMYh-52" value="否" style="edgeStyle=orthogonalEdgeStyle;rounded=0;orthogonalLoop=1;jettySize=auto;html=1;exitX=0;exitY=0.5;exitDx=0;exitDy=0;" edge="1" parent="1" source="DGvuqAQG5Nx5wT4afMYh-47" target="DGvuqAQG5Nx5wT4afMYh-21">
          <mxGeometry relative="1" as="geometry" />
        </mxCell>
        <mxCell id="DGvuqAQG5Nx5wT4afMYh-47" value="是否修改成功" style="rhombus;whiteSpace=wrap;html=1;rounded=1;arcSize=14;strokeWidth=2;" vertex="1" parent="1">
          <mxGeometry x="200" y="518.5" width="80" height="80" as="geometry" />
        </mxCell>
        <mxCell id="DGvuqAQG5Nx5wT4afMYh-53" value="是" style="edgeStyle=orthogonalEdgeStyle;rounded=0;orthogonalLoop=1;jettySize=auto;html=1;exitX=0.5;exitY=1;exitDx=0;exitDy=0;entryX=0;entryY=0.5;entryDx=0;entryDy=0;entryPerimeter=0;" edge="1" parent="1" source="DGvuqAQG5Nx5wT4afMYh-50" target="DGvuqAQG5Nx5wT4afMYh-39">
          <mxGeometry relative="1" as="geometry" />
        </mxCell>
        <mxCell id="DGvuqAQG5Nx5wT4afMYh-54" value="否" style="edgeStyle=orthogonalEdgeStyle;rounded=0;orthogonalLoop=1;jettySize=auto;html=1;exitX=0;exitY=0.5;exitDx=0;exitDy=0;entryX=0;entryY=0.25;entryDx=0;entryDy=0;" edge="1" parent="1" source="DGvuqAQG5Nx5wT4afMYh-50" target="DGvuqAQG5Nx5wT4afMYh-25">
          <mxGeometry relative="1" as="geometry" />
        </mxCell>
        <mxCell id="DGvuqAQG5Nx5wT4afMYh-50" value="是否符合要求" style="rhombus;whiteSpace=wrap;html=1;rounded=1;arcSize=14;strokeWidth=2;" vertex="1" parent="1">
          <mxGeometry x="61" y="553" width="97" height="80" as="geometry" />
        </mxCell>
      </root>
    </mxGraphModel>
  </diagram>
</mxfile>
